HIERARCHY
ROOT Hips
{
	OFFSET -3.958830 18.904000 13.208200
	CHANNELS 6 Xposition Yposition Zposition Zrotation Yrotation Xrotation 
	JOINT LHipJoint
	{
		OFFSET 0.000000 0.000000 0.000000
		CHANNELS 3 Zrotation Yrotation Xrotation
		JOINT LeftUpLeg
		{
			OFFSET 1.800000 -1.400000 0.085000
			CHANNELS 3 Zrotation Yrotation Xrotation
			JOINT LeftLeg
			{
				OFFSET 2.215000 -6.000000 0.000000
				CHANNELS 3 Zrotation Yrotation Xrotation
				JOINT LeftFoot
				{
					OFFSET 2.500000 -6.900000 0.000000
					CHANNELS 3 Zrotation Yrotation Xrotation
					JOINT LeftToeBase
					{
						OFFSET 0.200000 -0.500000 1.950000
						CHANNELS 3 Zrotation Yrotation Xrotation
						End Site
						{
							OFFSET 0.000000 0.000000 0.000000
						}
					}
				}
			}
		}
	}
	JOINT RHipJoint
	{
		OFFSET 0.000000 0.000000 0.000000
		CHANNELS 3 Zrotation Yrotation Xrotation
		JOINT RightUpLeg
		{
			OFFSET -1.800000 -1.400000 0.085000
			CHANNELS 3 Zrotation Yrotation Xrotation
			JOINT RightLeg
			{
				OFFSET -2.215000 -6.000000 0.000000
				CHANNELS 3 Zrotation Yrotation Xrotation
				JOINT RightFoot
				{
					OFFSET -2.500000 -6.900000 0.000000
					CHANNELS 3 Zrotation Yrotation Xrotation
					JOINT RightToeBase
					{
						OFFSET -0.200000 -0.500000 1.950000
						CHANNELS 3 Zrotation Yrotation Xrotation
						End Site
						{
							OFFSET 0.000000 0.000000 0.000000
						}
					}
				}
			}
		}
	}
	JOINT LowerBack
	{
		OFFSET 0.000000 0.000000 0.000000
		CHANNELS 3 Zrotation Yrotation Xrotation
		JOINT Spine
		{
			OFFSET -0.087000 1.940000 -0.288900
			CHANNELS 3 Zrotation Yrotation Xrotation
			JOINT Spine1
			{
				OFFSET 0.000000 1.950000 0.060000
				CHANNELS 3 Zrotation Yrotation Xrotation
				JOINT Neck
				{
					OFFSET 0.000000 0.000000 0.000000
					CHANNELS 3 Zrotation Yrotation Xrotation
					JOINT Neck1
					{
						OFFSET 0.000000 1.600000 0.340000
						CHANNELS 3 Zrotation Yrotation Xrotation
						JOINT Head
						{
							OFFSET 0.000000 1.667000 -0.240000
							CHANNELS 3 Zrotation Yrotation Xrotation
							End Site
							{
								OFFSET 0.000000 0.000000 0.000000
							}
						}
					}
				}
				JOINT LeftShoulder
				{
					OFFSET 0.000000 0.000000 0.000000
					CHANNELS 3 Zrotation Yrotation Xrotation
					JOINT LeftArm
					{
						OFFSET 2.700000 1.550000 -0.730000
						CHANNELS 3 Zrotation Yrotation Xrotation
						JOINT LeftForeArm
						{
							OFFSET 5.450000 0.000000 0.000000
							CHANNELS 3 Zrotation Yrotation Xrotation
							JOINT LeftHand
							{
								OFFSET 3.450000 0.000000 0.000000
								CHANNELS 3 Zrotation Yrotation Xrotation
								JOINT LeftHandIndex1
								{
									OFFSET 0.750000 0.000000 0.000000
									CHANNELS 3 Zrotation Yrotation Xrotation
									End Site
									{
										OFFSET 0.000000 0.000000 0.000000
									}
								}
							}
						}
					}
				}
				JOINT RightShoulder
				{
					OFFSET 0.000000 0.000000 0.000000
					CHANNELS 3 Zrotation Yrotation Xrotation
					JOINT RightArm
					{
						OFFSET -2.700000 1.550000 -0.730000
						CHANNELS 3 Zrotation Yrotation Xrotation
						JOINT RightForeArm
						{
							OFFSET -5.450000 0.000000 0.000000
							CHANNELS 3 Zrotation Yrotation Xrotation
							JOINT RightHand
							{
								OFFSET -3.450000 0.000000 0.000000
								CHANNELS 3 Zrotation Yrotation Xrotation
								JOINT RightHandIndex1
								{
									OFFSET -0.750000 0.000000 0.000000
									CHANNELS 3 Zrotation Yrotation Xrotation
									End Site
									{
										OFFSET 0.000000 0.000000 0.000000
									}
								}
							}
						}
					}
				}
			}
		}
	}
}
MOTION
Frames: 4
Frame Time: 0.016667
-0.525210 16.883660 -0.852810 -2.856383 -11.990653 6.037843 -14.828736 12.809636 2.455639 12.013321 -1.244560 -16.225101 -8.927094 8.751682 21.172819 0.084114 5.671230 2.994404 -0.348480 -0.733470 -0.407450 18.577981 -11.453163 2.596419 -9.578145 0.943219 -13.312572 10.073779 -6.012187 12.215347 0.300913 -4.368960 3.246326 -0.294330 1.063040 0.270770 -4.402043 0.330336 -6.411666 11.533898 2.069850 -0.068399 -6.018200 1.702108 4.176970 2.451479 -0.829207 -6.490308 -1.064496 1.284636 24.069935 -3.537520 1.605870 16.531340 -20.819434 -1.846062 1.940945 -53.315193 -1.891247 -3.875121 -14.350501 -14.297412 0.218621 -4.510899 3.175935 -0.311780 0.831350 -0.790930 0.262670 15.722237 2.886300 3.193160 63.372443 2.669066 -6.105657 16.558132 17.909838 -0.102107 2.299624 -1.741307 -0.308150 0.053120 0.242490 0.079770 
-0.516030 16.886200 -0.852090 -2.875278 -12.131816 6.003642 -14.829183 12.803531 2.461525 11.978005 -1.274799 -16.464420 -8.842170 8.828274 21.647150 0.086200 5.714567 2.975526 -0.352290 -0.740300 -0.408910 18.575734 -11.465637 2.596092 -9.674871 0.954945 -13.376729 10.105833 -6.051115 12.356447 0.300097 -4.377179 3.241160 -0.298500 1.060820 0.270510 -4.396507 0.362073 -6.418672 11.388578 2.246571 -0.009204 -5.845381 1.875998 4.247391 2.471680 -0.616459 -6.581344 -0.725984 1.030223 24.206782 -3.517720 1.436840 16.579360 -20.646105 -2.010066 2.014511 -53.538568 -1.953115 -3.962137 -14.393181 -14.627849 0.239593 -4.506307 3.173182 -0.304820 0.828300 -0.788770 0.261020 15.526916 2.949418 3.285289 63.408216 2.538138 -6.266419 16.571932 18.176476 -0.089055 2.295516 -1.738351 -0.310730 0.053190 0.245070 0.077810 
-0.499750 16.888760 -0.851330 -2.982953 -12.339293 6.035896 -14.835748 12.766617 2.479043 12.110773 -1.322416 -16.904785 -8.971322 9.067934 22.434884 0.110931 5.835533 2.929027 -0.350190 -0.737110 -0.406900 18.573719 -11.462527 2.597203 -9.738678 0.970125 -13.404872 10.234908 -6.069600 12.299181 0.298169 -4.393418 3.233139 -0.298380 1.061600 0.278950 -4.385508 0.417548 -6.428017 11.157705 2.491655 0.015534 -5.457617 2.080254 4.384912 2.488725 -0.222374 -6.627508 -0.056931 0.604129 24.138880 -3.619320 1.288900 16.646330 -20.475712 -2.170092 2.071102 -53.669048 -2.117526 -3.980145 -14.908539 -14.923395 0.317799 -4.510317 3.188052 -0.314560 0.834440 -0.788460 0.263000 15.364620 2.879935 3.299320 63.104818 2.432709 -6.311802 16.786258 18.322065 -0.069315 2.293336 -1.751485 -0.303240 0.045760 0.241410 0.081260 
-0.475770 16.892790 -0.849460 -3.077475 -12.497434 6.083631 -14.846993 12.724023 2.496875 12.147393 -1.402119 -17.473799 -8.984767 9.308504 23.417305 0.144231 5.960969 2.881264 -0.351110 -0.734900 -0.403800 18.567776 -11.459454 2.599462 -9.916077 0.980051 -13.449252 10.412196 -6.089636 12.171288 0.299627 -4.417442 3.223180 -0.299810 1.059630 0.287990 -4.362784 0.483901 -6.435967 10.764848 2.826397 0.037998 -4.896189 2.347297 4.468104 2.535107 0.323567 -6.659246 0.875005 0.007993 23.990935 -3.918040 1.241600 16.887720 -20.412189 -2.309591 2.089389 -53.702176 -2.370921 -3.929844 -15.782894 -15.230221 0.462660 -4.517245 3.211551 -0.334160 0.845160 -0.790020 0.264130 15.264974 2.705036 3.314464 62.666210 2.157947 -6.437927 16.813920 18.628716 -0.071624 2.292606 -1.770089 -0.292530 0.031040 0.234010 0.084890 
